<svg width="319" height="294" viewBox="0 0 319 294" fill="none" xmlns="http://www.w3.org/2000/svg">
<g clip-path="url(#clip0_63_25)">
<path d="M287.623 153.002C287.664 189.382 274.375 224.361 250.548 250.588C249.112 252.18 247.637 253.733 246.123 255.247C243.816 257.569 241.432 259.801 238.97 261.942C215.943 282.017 187.195 293.297 157.366 293.964C156.372 293.988 155.374 294 154.373 294C130.583 294 100.661 280.555 73.5066 261.942C71.26 260.402 69.0334 258.827 66.8269 257.216C65.7955 256.47 64.7691 255.713 63.7476 254.946C53.2747 247.121 43.3337 238.528 33.9981 229.23C27.8858 223.16 22.154 216.675 16.8393 209.816C-4.0251 182.584 -8.62705 158.046 21.1187 153.002C24.6405 152.407 28.0585 151.771 31.3727 151.093C36.1735 150.117 40.7679 149.063 45.1561 147.931C51.067 146.411 56.6203 144.762 61.8161 142.986C63.5639 142.39 65.2716 141.783 66.9394 141.164C91.5956 132.001 108.098 120.052 119.331 107.086C121.236 104.892 122.993 102.671 124.601 100.423C127.06 97.0024 129.295 93.4063 131.288 89.6607C134.039 84.4564 136.349 79.0049 138.193 73.3699L138.294 73.0604C147.232 45.7807 144.512 20.4774 154.373 12.0086C196.521 -24.1963 248.996 27.3628 273.626 88.1646C274.867 91.2283 276.035 94.3105 277.129 97.4112C277.62 98.7962 278.094 100.184 278.55 101.574C279.75 105.197 280.839 108.83 281.817 112.472C282.192 113.861 282.549 115.248 282.89 116.635C283.253 118.131 283.602 119.623 283.925 121.115C286.321 132.041 287.623 142.815 287.623 153.002Z" fill="#A9A2E4"/>
<path d="M157.366 293.964C156.372 293.988 155.374 294 154.373 294C130.583 294 100.661 280.555 73.5067 261.942C71.2601 260.403 69.0335 258.827 66.8269 257.216L68.7622 244.755L127.35 236.524L156.754 260.315L157.366 293.964Z" fill="#2F2E41"/>
<path d="M160.186 71.4531H151.837C151.579 71.4532 151.331 71.562 151.148 71.7555C150.965 71.9489 150.862 72.2113 150.862 72.4849V81.3228C150.862 81.4581 150.888 81.592 150.937 81.7169C150.986 81.8418 151.058 81.9552 151.148 82.0507C151.239 82.1462 151.346 82.2218 151.464 82.2733C151.583 82.3247 151.709 82.351 151.837 82.3507H160.186C160.444 82.3508 160.691 82.2426 160.874 82.05C161.057 81.8573 161.16 81.5958 161.161 81.3228V72.4849C161.16 72.2115 161.057 71.9495 160.875 71.7562C160.692 71.5629 160.444 71.4539 160.186 71.4531Z" fill="white"/>
<path d="M160.186 86.5137H151.837C151.579 86.5138 151.331 86.6225 151.148 86.816C150.965 87.0095 150.862 87.2719 150.862 87.5455V96.3834C150.862 96.5187 150.888 96.6526 150.937 96.7775C150.986 96.9024 151.058 97.0158 151.148 97.1113C151.239 97.2068 151.346 97.2824 151.464 97.3339C151.583 97.3853 151.709 97.4116 151.837 97.4112H160.186C160.444 97.4113 160.691 97.3032 160.874 97.1106C161.057 96.9179 161.16 96.6564 161.161 96.3834V87.5455C161.16 87.2721 161.057 87.0101 160.875 86.8167C160.692 86.6234 160.444 86.5145 160.186 86.5137Z" fill="#E6E6E6"/>
<path d="M160.186 101.574H151.837C151.579 101.574 151.331 101.683 151.148 101.877C150.965 102.07 150.862 102.332 150.862 102.606V111.44C150.862 111.576 150.887 111.71 150.936 111.835C150.985 111.96 151.056 112.074 151.147 112.17C151.238 112.266 151.345 112.342 151.464 112.394C151.582 112.446 151.709 112.472 151.837 112.472H160.186C160.445 112.472 160.692 112.363 160.875 112.169C161.058 111.976 161.161 111.714 161.161 111.44V102.606C161.16 102.333 161.057 102.071 160.875 101.877C160.692 101.684 160.444 101.575 160.186 101.574Z" fill="#E6E6E6"/>
<path d="M161.146 117.484C161.104 117.246 160.986 117.032 160.811 116.877C160.635 116.721 160.414 116.636 160.186 116.635H151.837C151.579 116.635 151.331 116.744 151.148 116.937C150.965 117.131 150.862 117.393 150.862 117.667V126.501C150.862 126.636 150.887 126.77 150.936 126.896C150.985 127.021 151.056 127.135 151.147 127.231C151.238 127.327 151.345 127.403 151.464 127.454C151.582 127.506 151.709 127.533 151.837 127.532H160.186C160.445 127.532 160.692 127.423 160.875 127.23C161.058 127.037 161.161 126.774 161.161 126.501V117.667C161.162 117.605 161.157 117.544 161.146 117.484Z" fill="#E6E6E6"/>
<path d="M160.565 131.775C160.445 131.722 160.316 131.695 160.186 131.695H151.837C151.709 131.695 151.582 131.722 151.464 131.773C151.345 131.825 151.238 131.901 151.147 131.997C151.056 132.093 150.985 132.207 150.936 132.332C150.887 132.457 150.862 132.592 150.862 132.727V141.561C150.861 141.697 150.886 141.831 150.935 141.957C150.984 142.082 151.056 142.196 151.146 142.292C151.237 142.388 151.345 142.464 151.463 142.516C151.582 142.567 151.709 142.594 151.837 142.593H160.186C160.444 142.593 160.692 142.484 160.875 142.291C161.058 142.097 161.161 141.835 161.161 141.561V132.727C161.161 132.524 161.104 132.326 160.998 132.156C160.892 131.987 160.741 131.854 160.565 131.775Z" fill="#E6E6E6"/>
<path d="M177.724 71.4531H169.375C169.116 71.4532 168.868 71.562 168.685 71.7555C168.503 71.9489 168.4 72.2113 168.4 72.4849V81.3228C168.4 81.4581 168.425 81.592 168.474 81.7169C168.523 81.8418 168.595 81.9552 168.686 82.0507C168.776 82.1462 168.884 82.2218 169.002 82.2733C169.12 82.3247 169.247 82.351 169.375 82.3507H177.724C177.982 82.3508 178.229 82.2426 178.412 82.05C178.595 81.8573 178.698 81.5958 178.699 81.3228V72.4849C178.698 72.2115 178.595 71.9495 178.412 71.7562C178.23 71.5629 177.982 71.4539 177.724 71.4531Z" fill="#E6E6E6"/>
<path d="M177.724 86.5137H169.375C169.116 86.5138 168.868 86.6225 168.685 86.816C168.503 87.0095 168.4 87.2719 168.4 87.5455V96.3834C168.4 96.5187 168.425 96.6526 168.474 96.7775C168.523 96.9024 168.595 97.0158 168.686 97.1113C168.776 97.2068 168.884 97.2824 169.002 97.3339C169.12 97.3853 169.247 97.4116 169.375 97.4112H177.724C177.982 97.4113 178.229 97.3032 178.412 97.1106C178.595 96.9179 178.698 96.6564 178.699 96.3834V87.5455C178.698 87.2721 178.595 87.0101 178.412 86.8167C178.23 86.6234 177.982 86.5145 177.724 86.5137Z" fill="#7267CB"/>
<path d="M177.724 101.574H169.375C169.116 101.574 168.868 101.683 168.685 101.877C168.503 102.07 168.4 102.332 168.4 102.606V111.44C168.399 111.576 168.424 111.71 168.473 111.835C168.522 111.96 168.594 112.074 168.685 112.17C168.775 112.266 168.883 112.342 169.001 112.394C169.12 112.446 169.247 112.472 169.375 112.472H177.724C177.982 112.472 178.23 112.363 178.413 112.169C178.596 111.976 178.699 111.714 178.699 111.44V102.606C178.698 102.333 178.595 102.071 178.412 101.877C178.23 101.684 177.982 101.575 177.724 101.574Z" fill="#7267CB"/>
<path d="M177.724 116.635H169.375C169.17 116.635 168.971 116.703 168.805 116.83C168.64 116.957 168.516 117.136 168.452 117.341C168.417 117.446 168.4 117.556 168.4 117.667V126.501C168.399 126.636 168.424 126.77 168.473 126.896C168.522 127.021 168.594 127.135 168.685 127.231C168.775 127.327 168.883 127.403 169.001 127.454C169.12 127.506 169.247 127.533 169.375 127.532H177.724C177.982 127.532 178.23 127.423 178.413 127.23C178.596 127.037 178.699 126.774 178.699 126.501V117.667C178.698 117.393 178.595 117.131 178.412 116.938C178.229 116.745 177.982 116.636 177.724 116.635Z" fill="#7267CB"/>
<path d="M177.724 131.695H169.375C169.247 131.695 169.12 131.722 169.001 131.773C168.883 131.825 168.775 131.901 168.685 131.997C168.594 132.093 168.522 132.207 168.473 132.332C168.424 132.457 168.399 132.592 168.4 132.727V141.561C168.399 141.697 168.424 141.831 168.473 141.956C168.522 142.082 168.594 142.195 168.685 142.291C168.775 142.387 168.883 142.463 169.001 142.515C169.12 142.567 169.247 142.593 169.375 142.593H177.724C177.982 142.593 178.23 142.484 178.413 142.291C178.596 142.097 178.699 141.835 178.699 141.561V132.727C178.699 132.454 178.596 132.191 178.413 131.998C178.23 131.804 177.982 131.695 177.724 131.695Z" fill="#E6E6E6"/>
<path d="M195.261 71.4531H186.913C186.654 71.4532 186.406 71.562 186.223 71.7555C186.04 71.9489 185.938 72.2113 185.938 72.4849V81.3228C185.938 81.4581 185.963 81.592 186.012 81.7169C186.061 81.8418 186.133 81.9552 186.224 82.0507C186.314 82.1462 186.422 82.2218 186.54 82.2733C186.658 82.3247 186.785 82.351 186.913 82.3507H195.261C195.519 82.3508 195.767 82.2426 195.95 82.05C196.132 81.8573 196.236 81.5958 196.237 81.3228V72.4849C196.236 72.2115 196.133 71.9495 195.95 71.7562C195.767 71.5629 195.52 71.4539 195.261 71.4531Z" fill="#7267CB"/>
<path d="M195.261 86.5137H186.913C186.654 86.5138 186.406 86.6225 186.223 86.816C186.04 87.0095 185.938 87.2719 185.938 87.5455V96.3834C185.938 96.5187 185.963 96.6526 186.012 96.7775C186.061 96.9024 186.133 97.0158 186.224 97.1113C186.314 97.2068 186.422 97.2824 186.54 97.3339C186.658 97.3853 186.785 97.4116 186.913 97.4112H195.261C195.519 97.4113 195.767 97.3032 195.95 97.1106C196.132 96.9179 196.236 96.6564 196.237 96.3834V87.5455C196.236 87.2721 196.133 87.0101 195.95 86.8167C195.767 86.6234 195.52 86.5145 195.261 86.5137Z" fill="#7267CB"/>
<path d="M195.261 101.574H186.913C186.654 101.574 186.406 101.683 186.223 101.877C186.04 102.07 185.938 102.332 185.938 102.606V111.44C185.937 111.576 185.962 111.71 186.011 111.835C186.06 111.96 186.132 112.074 186.223 112.17C186.313 112.266 186.421 112.342 186.539 112.394C186.658 112.446 186.784 112.472 186.913 112.472H195.261C195.52 112.472 195.768 112.363 195.951 112.169C196.134 111.976 196.236 111.714 196.237 111.44V102.606C196.236 102.333 196.133 102.071 195.95 101.877C195.767 101.684 195.52 101.575 195.261 101.574Z" fill="#E6E6E6"/>
<path d="M195.261 116.635H186.913C186.654 116.635 186.406 116.744 186.223 116.937C186.04 117.131 185.938 117.393 185.938 117.667V126.501C185.937 126.636 185.962 126.77 186.011 126.896C186.06 127.021 186.132 127.135 186.223 127.231C186.313 127.327 186.421 127.403 186.539 127.454C186.658 127.506 186.784 127.533 186.913 127.532H195.261C195.52 127.532 195.768 127.423 195.951 127.23C196.134 127.037 196.236 126.774 196.237 126.501V117.667C196.236 117.393 196.133 117.131 195.95 116.938C195.767 116.745 195.52 116.636 195.261 116.635Z" fill="#7267CB"/>
<path d="M195.261 131.695H186.913C186.784 131.695 186.658 131.722 186.539 131.773C186.421 131.825 186.313 131.901 186.223 131.997C186.132 132.093 186.06 132.207 186.011 132.332C185.962 132.457 185.937 132.592 185.938 132.727V141.561C185.937 141.697 185.962 141.831 186.011 141.956C186.06 142.082 186.132 142.195 186.223 142.291C186.313 142.387 186.421 142.463 186.539 142.515C186.658 142.567 186.784 142.593 186.913 142.593H195.261C195.52 142.593 195.768 142.484 195.951 142.291C196.134 142.097 196.236 141.835 196.237 141.561V132.727C196.236 132.454 196.134 132.191 195.951 131.998C195.768 131.804 195.52 131.695 195.261 131.695Z" fill="#7267CB"/>
<path d="M212.799 71.4531H204.45C204.192 71.4532 203.944 71.562 203.761 71.7555C203.578 71.9489 203.475 72.2113 203.475 72.4849V81.3228C203.475 81.4581 203.501 81.592 203.55 81.7169C203.599 81.8418 203.671 81.9552 203.761 82.0507C203.852 82.1462 203.959 82.2218 204.077 82.2733C204.196 82.3248 204.322 82.351 204.45 82.3507H212.799C213.057 82.3508 213.305 82.2426 213.487 82.05C213.67 81.8573 213.773 81.5958 213.774 81.3228V72.4849C213.773 72.2115 213.67 71.9495 213.488 71.7562C213.305 71.5629 213.057 71.4539 212.799 71.4531Z" fill="#7267CB"/>
<path d="M212.799 86.5137H204.45C204.192 86.5138 203.944 86.6225 203.761 86.816C203.578 87.0095 203.475 87.2719 203.475 87.5455V96.3834C203.475 96.5187 203.501 96.6526 203.55 96.7775C203.599 96.9024 203.671 97.0158 203.761 97.1113C203.852 97.2068 203.959 97.2824 204.077 97.3339C204.196 97.3853 204.322 97.4116 204.45 97.4112H212.799C213.057 97.4113 213.305 97.3032 213.487 97.1106C213.67 96.9179 213.773 96.6564 213.774 96.3834V87.5455C213.773 87.2721 213.67 87.0101 213.488 86.8167C213.305 86.6234 213.057 86.5145 212.799 86.5137Z" fill="white"/>
<path d="M212.799 101.574H204.45C204.192 101.574 203.944 101.683 203.761 101.877C203.578 102.07 203.475 102.332 203.475 102.606V111.44C203.475 111.576 203.5 111.71 203.549 111.835C203.598 111.96 203.67 112.074 203.76 112.17C203.851 112.266 203.958 112.342 204.077 112.394C204.195 112.446 204.322 112.472 204.45 112.472H212.799C213.058 112.472 213.306 112.363 213.488 112.169C213.671 111.976 213.774 111.714 213.774 111.44V102.606C213.773 102.333 213.67 102.071 213.488 101.877C213.305 101.684 213.057 101.575 212.799 101.574Z" fill="white"/>
<path d="M212.799 116.635H204.45C204.192 116.635 203.944 116.744 203.761 116.937C203.578 117.131 203.475 117.393 203.475 117.667V126.501C203.475 126.636 203.5 126.77 203.549 126.896C203.598 127.021 203.67 127.135 203.76 127.231C203.851 127.327 203.958 127.403 204.077 127.454C204.195 127.506 204.322 127.533 204.45 127.532H212.799C213.058 127.532 213.306 127.423 213.488 127.23C213.671 127.037 213.774 126.774 213.774 126.501V117.667C213.773 117.393 213.67 117.131 213.488 116.938C213.305 116.745 213.057 116.636 212.799 116.635Z" fill="#E6E6E6"/>
<path d="M212.799 131.695H204.45C204.322 131.695 204.195 131.722 204.077 131.773C203.958 131.825 203.851 131.901 203.76 131.997C203.67 132.093 203.598 132.207 203.549 132.332C203.5 132.457 203.475 132.592 203.475 132.727V141.561C203.475 141.697 203.5 141.831 203.549 141.956C203.598 142.082 203.67 142.195 203.76 142.291C203.851 142.387 203.958 142.463 204.077 142.515C204.195 142.567 204.322 142.593 204.45 142.593H212.799C213.058 142.593 213.306 142.484 213.488 142.291C213.671 142.097 213.774 141.835 213.774 141.561V132.727C213.774 132.454 213.671 132.191 213.488 131.998C213.306 131.804 213.058 131.695 212.799 131.695Z" fill="#7267CB"/>
<path d="M230.337 71.4531H221.984C221.726 71.4541 221.479 71.5632 221.297 71.7566C221.115 71.95 221.013 72.2119 221.013 72.4849V81.3228C221.013 81.5954 221.115 81.8568 221.297 82.0495C221.479 82.2423 221.726 82.3506 221.984 82.3507H230.337C230.595 82.3508 230.842 82.2426 231.025 82.05C231.208 81.8573 231.311 81.5958 231.312 81.3228V72.4849C231.311 72.2115 231.208 71.9495 231.025 71.7562C230.843 71.5629 230.595 71.4539 230.337 71.4531Z" fill="white"/>
<path d="M230.337 86.5137H221.984C221.726 86.5146 221.479 86.6238 221.297 86.8172C221.115 87.0106 221.013 87.2725 221.013 87.5455V96.3834C221.013 96.656 221.115 96.9174 221.297 97.1101C221.479 97.3029 221.726 97.4112 221.984 97.4112H230.337C230.595 97.4113 230.842 97.3032 231.025 97.1106C231.208 96.9179 231.311 96.6564 231.312 96.3834V87.5455C231.311 87.2721 231.208 87.0101 231.025 86.8167C230.843 86.6234 230.595 86.5145 230.337 86.5137Z" fill="white"/>
<path d="M230.337 101.574H221.984C221.726 101.575 221.479 101.684 221.297 101.878C221.115 102.071 221.013 102.333 221.013 102.606V111.44C221.012 111.575 221.037 111.709 221.086 111.834C221.135 111.959 221.206 112.073 221.296 112.169C221.386 112.265 221.494 112.341 221.612 112.393C221.73 112.445 221.856 112.472 221.984 112.472H230.337C230.595 112.472 230.843 112.363 231.026 112.169C231.209 111.976 231.312 111.714 231.312 111.44V102.606C231.311 102.333 231.208 102.071 231.025 101.877C230.843 101.684 230.595 101.575 230.337 101.574Z" fill="white"/>
<path d="M230.337 116.635H221.984C221.726 116.636 221.479 116.745 221.297 116.938C221.115 117.132 221.013 117.394 221.013 117.667V126.501C221.012 126.636 221.037 126.77 221.086 126.895C221.134 127.02 221.206 127.134 221.296 127.23C221.386 127.325 221.494 127.402 221.612 127.453C221.73 127.505 221.856 127.532 221.984 127.532H230.337C230.595 127.532 230.843 127.424 231.026 127.23C231.209 127.037 231.312 126.774 231.312 126.501V117.667C231.311 117.393 231.208 117.131 231.025 116.938C230.843 116.745 230.595 116.636 230.337 116.635Z" fill="#7267CB"/>
<path d="M230.337 131.695H221.984C221.856 131.695 221.73 131.722 221.612 131.774C221.494 131.826 221.386 131.902 221.296 131.998C221.206 132.094 221.134 132.208 221.086 132.333C221.037 132.458 221.012 132.592 221.013 132.727V141.561C221.012 141.696 221.037 141.83 221.086 141.955C221.134 142.081 221.206 142.194 221.296 142.29C221.386 142.386 221.494 142.462 221.612 142.514C221.73 142.566 221.856 142.593 221.984 142.593H230.337C230.595 142.593 230.843 142.484 231.026 142.291C231.209 142.097 231.312 141.835 231.312 141.561V132.727C231.312 132.454 231.209 132.191 231.026 131.998C230.843 131.804 230.595 131.695 230.337 131.695Z" fill="#E6E6E6"/>
<path d="M247.874 71.4531H239.522C239.264 71.4541 239.017 71.5632 238.834 71.7566C238.652 71.95 238.55 72.2119 238.55 72.4849V81.3228C238.55 81.5954 238.653 81.8568 238.835 82.0495C239.017 82.2423 239.264 82.3506 239.522 82.3507H247.874C248.132 82.3508 248.38 82.2426 248.563 82.05C248.745 81.8573 248.849 81.5958 248.849 81.3228V72.4849C248.849 72.2115 248.746 71.9495 248.563 71.7562C248.38 71.5629 248.133 71.4539 247.874 71.4531Z" fill="white"/>
<path d="M247.874 86.5137H239.522C239.264 86.5146 239.017 86.6238 238.834 86.8172C238.652 87.0106 238.55 87.2725 238.55 87.5455V96.3834C238.55 96.656 238.653 96.9174 238.835 97.1101C239.017 97.3029 239.264 97.4112 239.522 97.4112H247.874C248.132 97.4113 248.38 97.3032 248.563 97.1105C248.745 96.9179 248.849 96.6564 248.849 96.3834V87.5455C248.849 87.2721 248.746 87.0101 248.563 86.8168C248.38 86.6234 248.133 86.5145 247.874 86.5137Z" fill="white"/>
<path d="M247.874 101.574H239.522C239.264 101.575 239.017 101.684 238.834 101.878C238.652 102.071 238.55 102.333 238.55 102.606V111.44C238.55 111.575 238.575 111.709 238.623 111.834C238.672 111.959 238.744 112.073 238.834 112.169C238.924 112.265 239.031 112.341 239.149 112.393C239.267 112.445 239.394 112.472 239.522 112.472H247.874C248.133 112.472 248.381 112.363 248.564 112.169C248.746 111.976 248.849 111.714 248.849 111.44V102.606C248.849 102.333 248.746 102.071 248.563 101.877C248.38 101.684 248.133 101.575 247.874 101.574Z" fill="#7267CB"/>
<path d="M247.874 116.635H239.522C239.264 116.636 239.017 116.745 238.834 116.938C238.652 117.132 238.55 117.394 238.55 117.667V126.501C238.55 126.636 238.575 126.77 238.623 126.895C238.672 127.02 238.744 127.134 238.834 127.23C238.924 127.325 239.031 127.402 239.149 127.453C239.267 127.505 239.394 127.532 239.522 127.532H247.874C248.133 127.532 248.381 127.423 248.564 127.23C248.747 127.037 248.849 126.774 248.849 126.501V117.667C248.849 117.393 248.746 117.131 248.563 116.938C248.38 116.745 248.133 116.636 247.874 116.635Z" fill="#E6E6E6"/>
<path d="M247.874 131.695H239.522C239.394 131.695 239.267 131.722 239.149 131.774C239.031 131.826 238.924 131.902 238.834 131.998C238.744 132.094 238.672 132.208 238.623 132.333C238.575 132.458 238.55 132.592 238.55 132.727V141.561C238.55 141.696 238.575 141.83 238.623 141.955C238.672 142.081 238.744 142.194 238.834 142.29C238.924 142.386 239.031 142.462 239.149 142.514C239.267 142.566 239.394 142.593 239.522 142.593H247.874C248.133 142.593 248.381 142.484 248.564 142.291C248.747 142.097 248.849 141.835 248.849 141.561V132.727C248.849 132.454 248.747 132.191 248.564 131.998C248.381 131.804 248.133 131.695 247.874 131.695Z" fill="white"/>
<path d="M265.412 71.4531H257.059C256.801 71.4541 256.554 71.5632 256.372 71.7566C256.19 71.95 256.088 72.2119 256.088 72.4849V81.3228C256.088 81.5954 256.19 81.8568 256.372 82.0495C256.555 82.2423 256.802 82.3506 257.059 82.3507H265.412C265.67 82.3508 265.917 82.2426 266.1 82.05C266.283 81.8573 266.386 81.5958 266.387 81.3228V72.4849C266.386 72.2115 266.283 71.9495 266.101 71.7562C265.918 71.5629 265.67 71.4539 265.412 71.4531Z" fill="#7267CB"/>
<path d="M265.412 86.5137H257.059C256.801 86.5146 256.554 86.6238 256.372 86.8172C256.19 87.0106 256.088 87.2725 256.088 87.5455V96.3834C256.088 96.656 256.19 96.9174 256.372 97.1101C256.555 97.3029 256.802 97.4112 257.059 97.4112H265.412C265.67 97.4113 265.917 97.3032 266.1 97.1105C266.283 96.9179 266.386 96.6564 266.387 96.3834V87.5455C266.386 87.2721 266.283 87.0101 266.101 86.8168C265.918 86.6234 265.67 86.5145 265.412 86.5137Z" fill="#7267CB"/>
<path d="M265.412 101.574H257.059C256.801 101.575 256.554 101.684 256.372 101.878C256.19 102.071 256.088 102.333 256.088 102.606V111.44C256.088 111.575 256.112 111.709 256.161 111.834C256.21 111.959 256.281 112.073 256.371 112.169C256.462 112.265 256.569 112.341 256.687 112.393C256.805 112.445 256.931 112.472 257.059 112.472H265.412C265.67 112.472 265.918 112.363 266.101 112.169C266.284 111.976 266.387 111.714 266.387 111.44V102.606C266.386 102.333 266.283 102.071 266.101 101.877C265.918 101.684 265.67 101.575 265.412 101.574Z" fill="#E6E6E6"/>
<path d="M265.412 116.635H257.059C256.801 116.636 256.554 116.745 256.372 116.938C256.19 117.132 256.088 117.394 256.088 117.667V126.501C256.088 126.636 256.112 126.77 256.161 126.895C256.21 127.02 256.281 127.134 256.371 127.23C256.462 127.325 256.569 127.402 256.687 127.453C256.805 127.505 256.931 127.532 257.059 127.532H265.412C265.67 127.532 265.918 127.423 266.101 127.23C266.284 127.037 266.387 126.774 266.387 126.501V117.667C266.386 117.393 266.283 117.131 266.101 116.938C265.918 116.745 265.67 116.636 265.412 116.635Z" fill="white"/>
<path d="M265.412 131.695H257.059C256.931 131.695 256.805 131.722 256.687 131.774C256.569 131.826 256.462 131.902 256.371 131.998C256.281 132.094 256.21 132.208 256.161 132.333C256.112 132.458 256.088 132.592 256.088 132.727V141.561C256.088 141.696 256.112 141.83 256.161 141.955C256.21 142.081 256.281 142.194 256.371 142.29C256.462 142.386 256.569 142.462 256.687 142.514C256.805 142.566 256.931 142.593 257.059 142.593H265.412C265.67 142.593 265.918 142.484 266.101 142.291C266.284 142.097 266.387 141.835 266.387 141.561V132.727C266.387 132.454 266.284 132.191 266.101 131.998C265.918 131.804 265.67 131.695 265.412 131.695Z" fill="#7267CB"/>
<path d="M282.949 71.4531H274.597C274.339 71.4541 274.092 71.5632 273.91 71.7566C273.728 71.95 273.625 72.2119 273.625 72.4849V81.3228C273.626 81.5954 273.728 81.8568 273.91 82.0495C274.092 82.2423 274.339 82.3506 274.597 82.3507H282.949C283.207 82.3508 283.455 82.2426 283.638 82.05C283.821 81.8573 283.924 81.5958 283.925 81.3228V72.4849C283.924 72.2115 283.821 71.9495 283.638 71.7562C283.455 71.5629 283.208 71.4539 282.949 71.4531Z" fill="#7267CB"/>
<path d="M282.949 86.5137H274.597C274.339 86.5146 274.092 86.6238 273.91 86.8172C273.728 87.0106 273.625 87.2725 273.625 87.5455V96.3834C273.626 96.656 273.728 96.9174 273.91 97.1101C274.092 97.3029 274.339 97.4112 274.597 97.4112H282.949C283.207 97.4113 283.455 97.3032 283.638 97.1105C283.821 96.9179 283.924 96.6564 283.925 96.3834V87.5455C283.924 87.2721 283.821 87.0101 283.638 86.8168C283.455 86.6234 283.208 86.5145 282.949 86.5137Z" fill="#7267CB"/>
<path d="M282.949 101.574H274.597C274.339 101.575 274.092 101.684 273.91 101.878C273.728 102.071 273.625 102.333 273.625 102.606V111.44C273.625 111.575 273.65 111.709 273.699 111.834C273.747 111.959 273.819 112.073 273.909 112.169C273.999 112.265 274.106 112.341 274.224 112.393C274.342 112.445 274.469 112.472 274.597 112.472H282.949C283.208 112.472 283.456 112.363 283.639 112.169C283.822 111.976 283.924 111.714 283.925 111.44V102.606C283.924 102.333 283.821 102.071 283.638 101.877C283.455 101.684 283.208 101.575 282.949 101.574Z" fill="#E6E6E6"/>
<path d="M282.949 116.635H274.597C274.339 116.636 274.092 116.745 273.91 116.938C273.728 117.132 273.625 117.394 273.625 117.667V126.501C273.625 126.636 273.65 126.77 273.699 126.895C273.747 127.02 273.819 127.134 273.909 127.23C273.999 127.325 274.106 127.402 274.224 127.453C274.342 127.505 274.469 127.532 274.597 127.532H282.949C283.208 127.532 283.456 127.423 283.639 127.23C283.822 127.037 283.924 126.774 283.925 126.501V117.667C283.924 117.393 283.821 117.131 283.638 116.938C283.455 116.745 283.208 116.636 282.949 116.635Z" fill="#7267CB"/>
<path d="M282.949 131.695H274.597C274.469 131.695 274.342 131.722 274.224 131.774C274.106 131.826 273.999 131.902 273.909 131.998C273.819 132.094 273.747 132.208 273.699 132.333C273.65 132.458 273.625 132.592 273.625 132.727V141.561C273.625 141.696 273.65 141.83 273.699 141.955C273.747 142.081 273.819 142.194 273.909 142.29C273.999 142.386 274.106 142.462 274.224 142.514C274.342 142.566 274.469 142.593 274.597 142.593H282.949C283.208 142.593 283.456 142.484 283.639 142.291C283.822 142.097 283.924 141.835 283.925 141.561V132.727C283.924 132.454 283.822 132.191 283.639 131.998C283.456 131.804 283.208 131.695 282.949 131.695Z" fill="#7267CB"/>
<path d="M300.487 71.4531H292.135C291.877 71.4541 291.63 71.5632 291.448 71.7566C291.265 71.95 291.163 72.2119 291.163 72.4849V81.3228C291.163 81.5954 291.266 81.8568 291.448 82.0495C291.63 82.2423 291.877 82.3506 292.135 82.3507H300.487C300.745 82.3508 300.993 82.2426 301.176 82.05C301.358 81.8573 301.462 81.5958 301.462 81.3228V72.4849C301.462 72.2115 301.359 71.9495 301.176 71.7562C300.993 71.5629 300.746 71.4539 300.487 71.4531Z" fill="#E6E6E6"/>
<path d="M300.487 86.5137H292.135C291.877 86.5146 291.63 86.6238 291.448 86.8172C291.265 87.0106 291.163 87.2725 291.163 87.5455V96.3834C291.163 96.656 291.266 96.9174 291.448 97.1101C291.63 97.3029 291.877 97.4112 292.135 97.4112H300.487C300.745 97.4113 300.993 97.3032 301.176 97.1105C301.358 96.9179 301.462 96.6564 301.462 96.3834V87.5455C301.462 87.2721 301.359 87.0101 301.176 86.8168C300.993 86.6234 300.746 86.5145 300.487 86.5137Z" fill="#7267CB"/>
<path d="M300.487 101.574H292.135C291.877 101.575 291.63 101.684 291.448 101.878C291.265 102.071 291.163 102.333 291.163 102.606V111.44C291.163 111.575 291.188 111.709 291.236 111.834C291.285 111.959 291.357 112.073 291.447 112.169C291.537 112.265 291.644 112.341 291.762 112.393C291.88 112.445 292.007 112.472 292.135 112.472H300.487C300.746 112.472 300.994 112.363 301.177 112.169C301.359 111.976 301.462 111.714 301.462 111.44V102.606C301.462 102.333 301.359 102.071 301.176 101.877C300.993 101.684 300.746 101.575 300.487 101.574Z" fill="#7267CB"/>
<path d="M300.487 116.635H292.135C291.877 116.636 291.63 116.745 291.448 116.938C291.265 117.132 291.163 117.394 291.163 117.667V126.501C291.163 126.636 291.188 126.77 291.236 126.895C291.285 127.02 291.357 127.134 291.447 127.23C291.537 127.325 291.644 127.402 291.762 127.453C291.88 127.505 292.007 127.532 292.135 127.532H300.487C300.746 127.532 300.994 127.423 301.177 127.23C301.36 127.037 301.462 126.774 301.462 126.501V117.667C301.462 117.393 301.359 117.131 301.176 116.938C300.993 116.745 300.746 116.636 300.487 116.635Z" fill="#7267CB"/>
<path d="M300.487 131.695H292.135C292.007 131.695 291.88 131.722 291.762 131.774C291.644 131.826 291.537 131.902 291.447 131.998C291.357 132.094 291.285 132.208 291.236 132.333C291.188 132.458 291.163 132.592 291.163 132.727V141.561C291.163 141.696 291.188 141.83 291.236 141.955C291.285 142.081 291.357 142.194 291.447 142.29C291.537 142.386 291.644 142.462 291.762 142.514C291.88 142.566 292.007 142.593 292.135 142.593H300.487C300.746 142.593 300.994 142.484 301.177 142.291C301.36 142.097 301.462 141.835 301.462 141.561V132.727C301.462 132.454 301.36 132.191 301.177 131.998C300.994 131.804 300.746 131.695 300.487 131.695Z" fill="#E6E6E6"/>
<path d="M318.025 71.4531H309.672C309.414 71.4541 309.167 71.5632 308.985 71.7566C308.803 71.95 308.701 72.2119 308.701 72.4849V81.3228C308.701 81.5954 308.803 81.8568 308.986 82.0495C309.168 82.2423 309.415 82.3506 309.672 82.3507H318.025C318.283 82.3508 318.53 82.2426 318.713 82.05C318.896 81.8573 318.999 81.5958 319 81.3228V72.4849C318.999 72.2115 318.896 71.9495 318.714 71.7562C318.531 71.5629 318.283 71.4539 318.025 71.4531Z" fill="#E6E6E6"/>
<path d="M318.025 86.5137H309.672C309.414 86.5146 309.167 86.6238 308.985 86.8172C308.803 87.0106 308.701 87.2725 308.701 87.5455V96.3834C308.701 96.656 308.803 96.9174 308.986 97.1101C309.168 97.3029 309.415 97.4112 309.672 97.4112H318.025C318.283 97.4113 318.53 97.3032 318.713 97.1105C318.896 96.9179 318.999 96.6564 319 96.3834V87.5455C318.999 87.2721 318.896 87.0101 318.714 86.8168C318.531 86.6234 318.283 86.5145 318.025 86.5137Z" fill="#E6E6E6"/>
<path d="M318.025 101.574H309.672C309.414 101.575 309.167 101.684 308.985 101.878C308.803 102.071 308.701 102.333 308.701 102.606V111.44C308.701 111.575 308.725 111.709 308.774 111.834C308.823 111.959 308.894 112.073 308.984 112.169C309.075 112.265 309.182 112.341 309.3 112.393C309.418 112.445 309.545 112.472 309.672 112.472H318.025C318.283 112.472 318.531 112.363 318.714 112.169C318.897 111.976 319 111.714 319 111.44V102.606C318.999 102.333 318.896 102.071 318.714 101.877C318.531 101.684 318.283 101.575 318.025 101.574Z" fill="#7267CB"/>
<path d="M318.025 116.635H309.672C309.414 116.636 309.167 116.745 308.985 116.938C308.803 117.132 308.701 117.394 308.701 117.667V126.501C308.701 126.636 308.725 126.77 308.774 126.895C308.823 127.02 308.894 127.134 308.984 127.23C309.075 127.325 309.182 127.402 309.3 127.453C309.418 127.505 309.545 127.532 309.672 127.532H318.025C318.283 127.532 318.531 127.423 318.714 127.23C318.897 127.037 319 126.774 319 126.501V117.667C318.999 117.393 318.896 117.131 318.714 116.938C318.531 116.745 318.283 116.636 318.025 116.635Z" fill="#E6E6E6"/>
<path d="M318.025 131.695H309.672C309.545 131.695 309.418 131.722 309.3 131.774C309.182 131.826 309.075 131.902 308.984 131.998C308.894 132.094 308.823 132.208 308.774 132.333C308.725 132.458 308.701 132.592 308.701 132.727V141.561C308.701 141.696 308.725 141.83 308.774 141.955C308.823 142.081 308.894 142.194 308.984 142.29C309.075 142.386 309.182 142.462 309.3 142.514C309.418 142.566 309.545 142.593 309.672 142.593H318.025C318.283 142.593 318.531 142.484 318.714 142.291C318.897 142.097 319 141.835 319 141.561V132.727C319 132.454 318.897 132.191 318.714 131.998C318.531 131.804 318.283 131.695 318.025 131.695Z" fill="#E6E6E6"/>
<path d="M126.055 261.943H125.822L126.021 261.915L126.055 261.943Z" fill="#2F2E41"/>
<path d="M106.071 97.2506C120.223 97.2506 131.696 85.1114 131.696 70.1369C131.696 55.1624 120.223 43.0232 106.071 43.0232C91.9193 43.0232 80.4468 55.1624 80.4468 70.1369C80.4468 85.1114 91.9193 97.2506 106.071 97.2506Z" fill="#FFB6B6"/>
<path d="M128.512 50.2576C128.512 50.2576 135.214 36.7008 120.469 35.4683C120.469 35.4683 107.899 23.4031 95.0868 33.2626C95.0868 33.2626 88.0983 33.2626 84.2768 41.6305C84.2768 41.6305 78.7803 39.4248 77.5724 45.3278C77.5724 45.3278 73.5505 57.6523 77.5724 68.7442C81.5943 79.8362 82.9303 81.0686 82.9303 81.0686C82.9303 81.0686 76.3214 57.8137 92.4079 56.5812C108.494 55.3488 126.496 44.7116 127.836 58.2684C129.177 71.8253 131.194 75.1656 131.194 75.1656C131.194 75.1656 143.927 55.8036 128.512 50.2576Z" fill="#2F2E41"/>
<path d="M172.357 136.957L172.274 137.418L171.348 142.593L164.945 178.389L164.567 180.496L163.772 184.953L162.684 191.033L160.272 204.506L159.582 208.367L159.323 209.816L159.233 210.324L158.517 214.32L158.299 215.526L156.552 229.23L155.025 241.171L160.133 246.576L157.088 249.798L155.089 261.914L155.093 261.942H73.5067C70.2062 259.68 66.9532 257.348 63.7477 254.946L64.4191 249.628C64.4191 249.628 66.7294 240.131 65.7579 238.996C64.7904 237.861 62.6675 235.833 62.6675 235.833L65.3417 229.23L65.713 228.313L65.0904 214.649L65.0754 214.32L64.8691 209.816L64.8429 209.236L64.8016 208.367L64.0102 191.033L63.9952 190.747L63.7552 185.492L63.5302 180.496L63.4326 178.389L62.4688 157.304L61.8162 142.986L61.2461 130.521L63.5377 129.699L88.0477 120.885L98.2004 106.92L119.331 107.086L129.675 107.17L146.935 124.107L150.862 126.092L150.892 126.107L153.709 127.532L160.85 131.14L168.4 134.957L172.274 136.914L172.357 136.957Z" fill="#CACACA"/>
<path d="M100.931 221.265C99.3825 221.9 97.7214 222.168 96.0645 222.05C94.4077 221.932 92.7954 221.431 91.3414 220.582C89.8873 219.734 88.6268 218.558 87.6486 217.138C86.6704 215.718 85.9983 214.089 85.6797 212.364L45.7141 206.365L59.6073 189.736L95.4293 197.982C98.2027 197.608 101.009 198.323 103.318 199.992C105.626 201.661 107.276 204.168 107.954 207.038C108.632 209.908 108.292 212.942 106.997 215.564C105.703 218.186 103.545 220.215 100.931 221.266V221.265Z" fill="#FFB6B6"/>
<path d="M83.1119 191.033C82.3716 190.04 81.3235 189.355 80.1527 189.1L63.7552 185.493L62.0712 185.124C61.0926 184.907 60.1681 184.475 59.3582 183.855C58.5484 183.235 57.8714 182.44 57.3717 181.524C56.8534 180.562 56.5398 179.492 56.4528 178.389C56.3747 177.386 56.4882 176.376 56.7866 175.421L62.4688 157.304L66.1555 145.549C66.6024 144.132 66.8661 142.657 66.9394 141.164C67.1449 137.034 65.9372 132.964 63.5376 129.699C61.4281 126.83 58.5021 124.754 55.1921 123.779C51.882 122.805 48.3634 122.982 45.1561 124.286C45.0624 124.322 44.9648 124.361 44.8711 124.401C42.571 125.373 40.516 126.897 38.8685 128.854C37.221 130.811 36.0261 133.146 35.3784 135.676L31.3728 151.093L23.1103 182.877C22.2832 186.062 22.1161 189.398 22.6204 192.657C23.1248 195.916 24.2887 199.021 26.0325 201.76C27.7762 204.5 30.0587 206.808 32.7237 208.527C35.3887 210.246 38.3732 211.335 41.4731 211.721L65.0904 214.649L76.0195 216.007C77.2833 216.167 78.5579 215.818 79.5894 215.029C80.6209 214.24 81.3336 213.069 81.5854 211.748C81.6031 211.677 81.6168 211.604 81.6266 211.53L81.8892 209.816L84.1133 195.378L84.1358 195.231C84.2516 194.495 84.2204 193.74 84.0441 193.017C83.8677 192.294 83.5502 191.618 83.1119 191.033Z" fill="#CACACA"/>
<path d="M126.388 221.728C128.005 222.126 129.685 222.143 131.31 221.779C132.935 221.415 134.464 220.678 135.79 219.621C137.117 218.564 138.208 217.212 138.987 215.66C139.766 214.108 140.215 212.395 140.3 210.64L179.067 198.737L163.096 184.347L128.731 197.857C125.936 197.9 123.252 199.027 121.189 201.024C119.127 203.02 117.828 205.749 117.539 208.691C117.25 211.634 117.991 214.586 119.622 216.989C121.253 219.392 123.66 221.078 126.388 221.728V221.728Z" fill="#FFB6B6"/>
<path d="M198.314 172.111L179.877 127.211C178.368 123.525 175.675 120.523 172.274 118.738C171.223 118.191 170.119 117.765 168.981 117.468C168.805 117.421 168.629 117.377 168.452 117.341C166.04 116.784 163.538 116.833 161.146 117.484C158.96 118.078 156.917 119.153 155.15 120.639C153.384 122.125 151.933 123.989 150.892 126.108C150.881 126.125 150.871 126.144 150.862 126.163C149.7 128.542 149.082 131.177 149.058 133.855C149.034 136.533 149.604 139.179 150.723 141.581L150.952 142.065L163.982 169.754C164.427 170.7 164.677 171.736 164.717 172.793C164.757 173.849 164.586 174.903 164.214 175.884C163.842 176.866 163.278 177.753 162.559 178.487C161.841 179.222 160.983 179.788 160.044 180.147L159.128 180.496L142.671 186.786C141.436 187.253 140.42 188.208 139.837 189.451C139.255 190.693 139.15 192.127 139.547 193.45L139.588 193.589L144.201 209.209C144.224 209.28 144.246 209.351 144.272 209.423C144.313 209.558 144.363 209.689 144.422 209.816C144.913 210.979 145.779 211.919 146.866 212.467C147.953 213.015 149.189 213.134 150.352 212.804L159.233 210.324L161.045 209.816L183.98 203.407C186.997 202.563 189.807 201.039 192.217 198.939C194.626 196.84 196.578 194.214 197.94 191.242C199.301 188.27 200.039 185.022 200.104 181.72C200.169 178.418 199.558 175.14 198.314 172.111L198.314 172.111Z" fill="#CACACA"/>
<path d="M16.8394 209.816C22.1541 216.675 27.8859 223.16 33.9982 229.23H203.513C205.146 229.232 206.711 229.92 207.866 231.143C209.02 232.365 209.669 234.022 209.671 235.75L209.915 281.201C220.343 276.132 230.109 269.659 238.97 261.942C241.431 259.803 243.815 257.572 246.123 255.247C247.634 253.731 249.11 252.178 250.548 250.588C261.337 238.697 270.072 224.897 276.36 209.816H16.8394Z" fill="#3F3D56"/>
<path d="M250.548 250.588C249.112 252.18 247.637 253.733 246.123 255.247H210.039V250.588H250.548Z" fill="white"/>
<path d="M172.019 101.574C171.841 101.226 171.577 100.935 171.255 100.733C170.934 100.53 170.567 100.423 170.192 100.423H47.2338C46.6826 100.425 46.1543 100.658 45.7649 101.07C45.3754 101.483 45.1565 102.043 45.156 102.626V180.496H172.274V102.626C172.276 102.258 172.188 101.896 172.019 101.574Z" fill="#3F3D56"/>
<path d="M45.0447 178.388V187.997C45.0447 188.396 45.1188 188.79 45.2629 189.158C45.407 189.526 45.6181 189.861 45.8844 190.142C46.1506 190.424 46.4666 190.647 46.8144 190.8C47.1623 190.952 47.5351 191.031 47.9115 191.031H94.8299V209.995H94.2066C94.1577 209.995 94.1093 210.005 94.0641 210.025C94.0189 210.045 93.9779 210.074 93.9433 210.11C93.9087 210.147 93.8813 210.19 93.8626 210.238C93.8438 210.286 93.8342 210.337 93.8342 210.389V211.708C93.8342 211.76 93.8438 211.811 93.8625 211.859C93.8813 211.907 93.9087 211.95 93.9433 211.987C93.9779 212.023 94.0189 212.052 94.0641 212.072C94.1093 212.092 94.1577 212.102 94.2066 212.102H123.333C123.382 212.102 123.43 212.092 123.475 212.072C123.521 212.052 123.562 212.023 123.596 211.987C123.631 211.95 123.658 211.907 123.677 211.859C123.696 211.811 123.705 211.76 123.705 211.708V210.389C123.705 210.337 123.696 210.286 123.677 210.238C123.658 210.19 123.631 210.147 123.596 210.11C123.562 210.074 123.521 210.045 123.475 210.025C123.43 210.005 123.382 209.995 123.333 209.995H122.71V191.031H169.628C170.005 191.031 170.377 190.952 170.725 190.8C171.073 190.647 171.389 190.424 171.655 190.142C171.921 189.861 172.133 189.526 172.277 189.158C172.421 188.79 172.495 188.396 172.495 187.997V178.388H45.0447Z" fill="#3F3D56"/>
<path d="M107.23 150.808C113.714 150.808 118.971 145.246 118.971 138.384C118.971 131.522 113.714 125.96 107.23 125.96C100.745 125.96 95.488 131.522 95.488 138.384C95.488 145.246 100.745 150.808 107.23 150.808Z" fill="#7267CB"/>
<path d="M137.146 68.6554H135.271C135.271 53.6544 121.24 43.8243 107.085 43.8164C105.027 43.81 102.972 44.0214 100.953 44.4474C98.6804 44.9276 96.3213 45.503 94.0034 46.2531C84.8633 49.2176 76.387 54.9481 76.387 68.6554C76.3851 71.3174 76.7052 73.9688 77.3397 76.5448L75.5244 77.0449C74.8511 74.3053 74.5108 71.4861 74.5117 68.6554C74.5117 56.6784 79.1587 48.4516 87.1849 43.5465C91.4043 40.967 96.5538 39.3042 102.453 38.4946C104.908 38.149 107.39 38.0692 109.861 38.2565C126.138 39.4947 137.146 52.7019 137.146 68.6554Z" fill="#7267CB"/>
<path d="M140.271 69.7545L139.532 63.9763C139.349 62.5171 138.685 61.1732 137.656 60.1824C136.996 59.5365 136.205 59.058 135.344 58.783C134.484 58.508 133.575 58.4437 132.687 58.595L131.513 58.7656C131.192 58.8104 130.882 58.9222 130.602 59.0945C130.322 59.2669 130.077 59.4964 129.881 59.7697C129.684 60.0421 129.54 60.3531 129.457 60.6848C129.374 61.0165 129.354 61.3624 129.398 61.7024L131.104 75.0128C131.174 75.5553 131.404 76.0607 131.761 76.4574C132.118 76.8541 132.583 77.122 133.092 77.2232C133.243 77.2552 133.396 77.2711 133.55 77.2709C133.66 77.2709 133.77 77.2629 133.88 77.2471L135.192 77.0605C135.993 76.9482 136.763 76.6638 137.455 76.225C138.148 75.7862 138.749 75.2022 139.22 74.5088C139.322 74.358 139.419 74.2032 139.509 74.0444C140.212 72.7459 140.48 71.2344 140.271 69.7545Z" fill="#7267CB"/>
<path d="M130.755 59.0078C130.411 59.1848 130.112 59.446 129.881 59.7698C129.684 60.0422 129.54 60.3532 129.457 60.6849C129.374 61.0166 129.354 61.3624 129.398 61.7024L131.104 75.0129C131.174 75.5554 131.404 76.0607 131.761 76.4574C132.118 76.8541 132.583 77.1221 133.092 77.2233L130.755 59.0078Z" fill="white"/>
<path d="M140.27 69.7545L139.532 63.9763C139.349 62.5171 138.685 61.1731 137.656 60.1824L139.355 73.4253C139.381 73.6379 139.432 73.8461 139.509 74.0444C140.212 72.7459 140.48 71.2344 140.27 69.7545Z" fill="#3F3D56"/>
<path d="M134.431 73.9178C134.944 73.8441 135.202 72.552 135.007 71.0317C134.812 69.5114 134.238 68.3386 133.725 68.4123C133.212 68.4859 132.954 69.7781 133.149 71.2984C133.344 72.8187 133.918 73.9914 134.431 73.9178Z" fill="#3F3D56"/>
<path d="M133.306 66.7745C133.819 66.7008 134.077 65.4087 133.882 63.8884C133.687 62.3681 133.113 61.1953 132.6 61.269C132.087 61.3426 131.829 62.6348 132.024 64.1551C132.219 65.6754 132.793 66.8481 133.306 66.7745Z" fill="#3F3D56"/>
<path d="M140.432 69.5526C140.945 69.4789 141.203 68.1867 141.008 66.6664C140.813 65.1461 140.239 63.9734 139.726 64.0471C139.213 64.1207 138.955 65.4129 139.15 66.9332C139.345 68.4535 139.919 69.6262 140.432 69.5526Z" fill="#3F3D56"/>
<path d="M107.085 43.8164C105.027 43.81 102.972 44.0214 100.953 44.4474C98.6803 44.9276 96.3212 45.503 94.0033 46.2531C90.384 46.0666 87.7211 45.0744 87.1848 43.5465C91.4042 40.967 96.5537 39.3042 102.453 38.4946C104.908 38.149 107.39 38.0692 109.861 38.2565C110.122 38.4187 110.348 38.6377 110.524 38.8989C110.7 39.1602 110.822 39.4579 110.881 39.7725C111.057 41.1535 109.568 42.6219 107.085 43.8164Z" fill="#3F3D56"/>
<path d="M83.1417 82.4262L80.2538 69.7229C80.1508 69.2646 79.9221 68.8487 79.5965 68.5275C79.2709 68.2062 78.8628 67.9939 78.4235 67.9172C78.2994 67.8968 78.1741 67.8862 78.0485 67.8855C77.8715 67.8862 77.6953 67.9088 77.5234 67.953L76.4057 68.2387C74.9667 68.607 73.7245 69.5642 72.9517 70.9005C72.179 72.2367 71.9388 73.8427 72.2838 75.3662L73.5778 81.065C73.8732 82.4066 74.5769 83.6085 75.5806 84.4859C75.7432 84.6248 75.9136 84.7533 76.0907 84.8708C76.7193 85.2877 77.4206 85.5671 78.153 85.6926C78.8854 85.818 79.6342 85.7869 80.3551 85.601L81.469 85.3153C81.7635 85.2426 82.0406 85.1061 82.2828 84.9145C82.6431 84.6366 82.917 84.2516 83.07 83.8085C83.2229 83.3655 83.2479 82.8843 83.1417 82.4262Z" fill="#7267CB"/>
<path d="M77.0876 80.0624C77.5911 79.9342 77.7242 78.6211 77.385 77.1294C77.0458 75.6378 76.3626 74.5325 75.8591 74.6607C75.3557 74.7889 75.2225 76.102 75.5618 77.5937C75.901 79.0853 76.5842 80.1906 77.0876 80.0624Z" fill="#3F3D56"/>
<path d="M73.3369 81.2531C73.8404 81.1249 73.9735 79.8118 73.6343 78.3201C73.295 76.8285 72.6119 75.7232 72.1084 75.8514C71.6049 75.9796 71.4718 77.2927 71.811 78.7844C72.1503 80.276 72.8334 81.3813 73.3369 81.2531Z" fill="#3F3D56"/>
<path d="M83.3256 82.3784L80.4377 69.6752C80.3251 69.1793 80.0769 68.7296 79.724 68.3823C79.3711 68.035 78.9292 67.8055 78.4536 67.7227L82.3955 85.0731C82.7848 84.7714 83.0809 84.3544 83.2464 83.8749C83.4119 83.3953 83.4395 82.8746 83.3256 82.3784Z" fill="white"/>
<path d="M72.9365 72.85C72.8568 72.4967 72.7073 72.1653 72.4977 71.8777C72.0917 72.9901 72.0171 74.2074 72.2839 75.366L73.5779 81.0648C73.8733 82.4065 74.5769 83.6083 75.5807 84.4857L72.9365 72.85Z" fill="#3F3D56"/>
</g>
<defs>
<clipPath id="clip0_63_25">
<rect width="319" height="294" fill="white"/>
</clipPath>
</defs>
</svg>
